<svg xmlns="http://www.w3.org/2000/svg" width="31.5" height="31.5" viewBox="0 0 31.5 31.5">
  <path id="Icon_awesome-pause" data-name="Icon awesome-pause" d="M10.125,33.68H3.375A3.376,3.376,0,0,1,0,30.3V5.555A3.376,3.376,0,0,1,3.375,2.18h6.75A3.376,3.376,0,0,1,13.5,5.555V30.3A3.376,3.376,0,0,1,10.125,33.68ZM31.5,30.3V5.555A3.376,3.376,0,0,0,28.125,2.18h-6.75A3.376,3.376,0,0,0,18,5.555V30.3a3.376,3.376,0,0,0,3.375,3.375h6.75A3.376,3.376,0,0,0,31.5,30.3Z" transform="translate(0 -2.18)" fill="#fff"/>
</svg>
